<svg width="30" height="26" viewBox="0 0 30 26" fill="none" xmlns="http://www.w3.org/2000/svg">
<path d="M15 25.8667C14.5867 25.8667 14.1867 25.8133 13.8534 25.6933C8.76002 23.9467 0.666687 17.7467 0.666687 8.58666C0.666687 3.92 4.44002 0.133331 9.08002 0.133331C11.3334 0.133331 13.44 1.01333 15 2.58666C16.56 1.01333 18.6667 0.133331 20.92 0.133331C25.56 0.133331 29.3334 3.93333 29.3334 8.58666C29.3334 17.76 21.24 23.9467 16.1467 25.6933C15.8134 25.8133 15.4134 25.8667 15 25.8667ZM9.08002 2.13333C5.54669 2.13333 2.66669 5.02666 2.66669 8.58666C2.66669 17.6933 11.4267 22.76 14.5067 23.8133C14.7467 23.8933 15.2667 23.8933 15.5067 23.8133C18.5734 22.76 27.3467 17.7067 27.3467 8.58666C27.3467 5.02666 24.4667 2.13333 20.9334 2.13333C18.9067 2.13333 17.0267 3.08 15.8134 4.72C15.44 5.22666 14.5867 5.22666 14.2134 4.72C12.9734 3.06666 11.1067 2.13333 9.08002 2.13333Z" fill="white"/>
</svg>
