<svg width="32" height="32" viewBox="0 0 32 32" fill="none" xmlns="http://www.w3.org/2000/svg">
<path d="M16 17C11.7733 17 8.33331 13.56 8.33331 9.33334C8.33331 5.10667 11.7733 1.66667 16 1.66667C20.2266 1.66667 23.6666 5.10667 23.6666 9.33334C23.6666 13.56 20.2266 17 16 17ZM16 3.66667C12.88 3.66667 10.3333 6.21334 10.3333 9.33334C10.3333 12.4533 12.88 15 16 15C19.12 15 21.6666 12.4533 21.6666 9.33334C21.6666 6.21334 19.12 3.66667 16 3.66667Z" fill="white"/>
<path d="M4.54688 30.3333C4.00021 30.3333 3.54688 29.88 3.54688 29.3333C3.54688 23.64 9.13358 19 16.0002 19C16.5469 19 17.0002 19.4533 17.0002 20C17.0002 20.5467 16.5469 21 16.0002 21C10.2402 21 5.54688 24.7333 5.54688 29.3333C5.54688 29.88 5.09354 30.3333 4.54688 30.3333Z" fill="white"/>
<path d="M24.2667 28.7834C21.7742 28.7834 19.75 26.7591 19.75 24.2667C19.75 21.7742 21.7742 19.75 24.2667 19.75C26.7591 19.75 28.7834 21.7742 28.7834 24.2667C28.7834 26.7591 26.7591 28.7834 24.2667 28.7834ZM24.2667 20.25C22.0525 20.25 20.25 22.0525 20.25 24.2667C20.25 26.4809 22.0525 28.2834 24.2667 28.2834C26.4809 28.2834 28.2834 26.4809 28.2834 24.2667C28.2834 22.0525 26.4809 20.25 24.2667 20.25Z" fill="white" stroke="white" stroke-width="1.5"/>
<path d="M29.3333 30.3333C29.0799 30.3333 28.8266 30.24 28.6266 30.04L27.2932 28.7067C26.9066 28.32 26.9066 27.6799 27.2932 27.2933C27.6799 26.9066 28.32 26.9066 28.7066 27.2933L30.04 28.6266C30.4266 29.0132 30.4266 29.6533 30.04 30.04C29.84 30.24 29.5866 30.3333 29.3333 30.3333Z" fill="white"/>
</svg>
