<svg width="28" height="28" viewBox="0 0 28 28" fill="none" xmlns="http://www.w3.org/2000/svg">
<path d="M25.8133 9.15999L16.5733 1.77333C15.1467 0.626659 12.84 0.626659 11.4267 1.75999L2.18667 9.15999C1.14667 9.98666 0.480008 11.7333 0.706674 13.04L2.48001 23.6533C2.80001 25.5467 4.61334 27.08 6.53334 27.08H21.4667C23.3733 27.08 25.2 25.5333 25.52 23.6533L27.2933 13.04C27.5067 11.7333 26.84 9.98666 25.8133 9.15999ZM14 18.6667C12.16 18.6667 10.6667 17.1733 10.6667 15.3333C10.6667 13.4933 12.16 12 14 12C15.84 12 17.3333 13.4933 17.3333 15.3333C17.3333 17.1733 15.84 18.6667 14 18.6667Z" fill="white"/>
</svg>
