<svg width="32" height="32" viewBox="0 0 32 32" fill="none" xmlns="http://www.w3.org/2000/svg">
<path d="M23.4665 30.0802H8.53313C6.10646 30.0802 3.89313 28.2135 3.49313 25.8135L1.71979 15.2002C1.43979 13.5469 2.2398 11.4269 3.5598 10.3736L12.7998 2.9735C14.5865 1.5335 17.3998 1.54684 19.1998 2.98684L28.4398 10.3736C29.7465 11.4269 30.5465 13.5469 30.2798 15.2002L28.5065 25.8135C28.1065 28.1735 25.8531 30.0802 23.4665 30.0802ZM15.9865 3.92019C15.2798 3.92019 14.5731 4.13349 14.0531 4.54682L4.81314 11.9469C4.05314 12.5602 3.53314 13.9202 3.69314 14.8802L5.46648 25.4935C5.70648 26.8935 7.10646 28.0802 8.53313 28.0802H23.4665C24.8931 28.0802 26.2931 26.8935 26.5331 25.4802L28.3065 14.8669C28.4665 13.9069 27.9331 12.5335 27.1865 11.9335L17.9465 4.54682C17.4131 4.13349 16.7065 3.92019 15.9865 3.92019Z" fill="white"/>
<path d="M15.9998 21.6667C13.6132 21.6667 11.6665 19.72 11.6665 17.3333C11.6665 14.9467 13.6132 13 15.9998 13C18.3865 13 20.3332 14.9467 20.3332 17.3333C20.3332 19.72 18.3865 21.6667 15.9998 21.6667ZM15.9998 15C14.7198 15 13.6665 16.0533 13.6665 17.3333C13.6665 18.6133 14.7198 19.6667 15.9998 19.6667C17.2798 19.6667 18.3332 18.6133 18.3332 17.3333C18.3332 16.0533 17.2798 15 15.9998 15Z" fill="white"/>
</svg>
