<svg width="32" height="32" viewBox="0 0 32 32" fill="none" xmlns="http://www.w3.org/2000/svg">
<path d="M29.3334 16C29.3334 8.65333 23.3467 2.66666 16.0001 2.66666C8.65341 2.66666 2.66675 8.65333 2.66675 16C2.66675 19.8667 4.33341 23.3467 6.97341 25.7867C6.97341 25.8 6.97341 25.8 6.96008 25.8133C7.09341 25.9467 7.25341 26.0533 7.38675 26.1733C7.46675 26.24 7.53341 26.3067 7.61341 26.36C7.85342 26.56 8.12008 26.7467 8.37341 26.9333C8.46675 27 8.54675 27.0533 8.64008 27.12C8.89341 27.2933 9.16008 27.4533 9.44008 27.6C9.53341 27.6533 9.64008 27.72 9.73342 27.7733C10.0001 27.92 10.2801 28.0533 10.5734 28.1733C10.6801 28.2267 10.7867 28.28 10.8934 28.32C11.1867 28.44 11.4801 28.5467 11.7734 28.64C11.8801 28.68 11.9867 28.72 12.0934 28.7467C12.4134 28.84 12.7334 28.92 13.0534 29C13.1467 29.0267 13.2401 29.0533 13.3467 29.0667C13.7201 29.1467 14.0934 29.2 14.4801 29.24C14.5334 29.24 14.5867 29.2533 14.6401 29.2667C15.0934 29.3067 15.5467 29.3333 16.0001 29.3333C16.4534 29.3333 16.9067 29.3067 17.3467 29.2667C17.4001 29.2667 17.4534 29.2533 17.5067 29.24C17.8934 29.2 18.2667 29.1467 18.6401 29.0667C18.7334 29.0533 18.8267 29.0133 18.9334 29C19.2534 28.92 19.5867 28.8533 19.8934 28.7467C20.0001 28.7067 20.1067 28.6667 20.2134 28.64C20.5067 28.5333 20.8134 28.44 21.0934 28.32C21.2001 28.28 21.3067 28.2267 21.4134 28.1733C21.6934 28.0533 21.9734 27.92 22.2534 27.7733C22.3601 27.72 22.4534 27.6533 22.5467 27.6C22.8134 27.44 23.0801 27.2933 23.3467 27.12C23.4401 27.0667 23.5201 27 23.6134 26.9333C23.8801 26.7467 24.1334 26.56 24.3734 26.36C24.4534 26.2933 24.5201 26.2267 24.6001 26.1733C24.7467 26.0533 24.8934 25.9333 25.0267 25.8133C25.0267 25.8 25.0267 25.8 25.0134 25.7867C27.6667 23.3467 29.3334 19.8667 29.3334 16ZM22.5868 22.6267C18.9734 20.2 13.0534 20.2 9.41341 22.6267C8.82675 23.0133 8.34675 23.4667 7.94675 23.96C5.92008 21.9067 4.66675 19.0933 4.66675 16C4.66675 9.74666 9.74675 4.66666 16.0001 4.66666C22.2534 4.66666 27.3334 9.74666 27.3334 16C27.3334 19.0933 26.0801 21.9067 24.0534 23.96C23.6667 23.4667 23.1734 23.0133 22.5868 22.6267Z" fill="white"/>
<path d="M16 9.24C13.24 9.24 11 11.48 11 14.24C11 16.9467 13.12 19.1467 15.9333 19.2267C15.9733 19.2267 16.0267 19.2267 16.0533 19.2267C16.08 19.2267 16.12 19.2267 16.1467 19.2267C16.16 19.2267 16.1733 19.2267 16.1733 19.2267C18.8667 19.1333 20.9867 16.9467 21 14.24C21 11.48 18.76 9.24 16 9.24Z" fill="white"/>
</svg>
