<svg width="32" height="32" viewBox="0 0 32 32" fill="none" xmlns="http://www.w3.org/2000/svg">
<path d="M16.16 18.04C16.1333 18.04 16.0933 18.04 16.0667 18.04C16.0267 18.04 15.9733 18.04 15.9333 18.04C12.9067 17.9467 10.64 15.5867 10.64 12.68C10.64 9.72 13.0533 7.30666 16.0133 7.30666C18.9733 7.30666 21.3867 9.72 21.3867 12.68C21.3734 15.6 19.0933 17.9467 16.2 18.04C16.1733 18.04 16.1733 18.04 16.16 18.04ZM16 9.29333C14.1333 9.29333 12.6267 10.8133 12.6267 12.6667C12.6267 14.4933 14.0533 15.9733 15.8667 16.04C15.9067 16.0267 16.04 16.0267 16.1733 16.04C17.96 15.9467 19.36 14.48 19.3733 12.6667C19.3733 10.8133 17.8667 9.29333 16 9.29333Z" fill="white"/>
<path d="M16 30.3333C12.4133 30.3333 8.98667 29 6.33334 26.5733C6.09334 26.36 5.98667 26.04 6.01334 25.7333C6.18667 24.1467 7.17334 22.6667 8.81334 21.5733C12.7867 18.9333 19.2267 18.9333 23.1867 21.5733C24.8267 22.68 25.8133 24.1467 25.9867 25.7333C26.0267 26.0533 25.9067 26.36 25.6667 26.5733C23.0133 29 19.5867 30.3333 16 30.3333ZM8.10667 25.4667C10.32 27.32 13.1067 28.3333 16 28.3333C18.8933 28.3333 21.68 27.32 23.8933 25.4667C23.6533 24.6533 23.0133 23.8667 22.0667 23.2267C18.7867 21.04 13.2267 21.04 9.92 23.2267C8.97334 23.8667 8.34667 24.6533 8.10667 25.4667Z" fill="white"/>
<path d="M16 30.3333C8.09335 30.3333 1.66669 23.9067 1.66669 16C1.66669 8.09333 8.09335 1.66666 16 1.66666C23.9067 1.66666 30.3334 8.09333 30.3334 16C30.3334 23.9067 23.9067 30.3333 16 30.3333ZM16 3.66666C9.20002 3.66666 3.66669 9.2 3.66669 16C3.66669 22.8 9.20002 28.3333 16 28.3333C22.8 28.3333 28.3334 22.8 28.3334 16C28.3334 9.2 22.8 3.66666 16 3.66666Z" fill="white"/>
</svg>
