<svg width="32" height="32" viewBox="0 0 32 32" fill="none" xmlns="http://www.w3.org/2000/svg">
<path d="M15.9999 18.6667C9.31988 18.6667 3.87988 23.1467 3.87988 28.6667C3.87988 29.0401 4.17322 29.3334 4.54655 29.3334H27.4532C27.8266 29.3334 28.1199 29.0401 28.1199 28.6667C28.1199 23.1467 22.6799 18.6667 15.9999 18.6667Z" fill="white"/>
<path d="M22.2935 13.8001L21.0135 12.5201C21.6802 11.5201 22.0668 10.3201 22.0668 9.02675C22.0668 5.50675 19.2135 2.66675 15.7068 2.66675C12.2002 2.66675 9.3335 5.52008 9.3335 9.02675C9.3335 12.5334 12.1868 15.3867 15.6935 15.3867C16.9868 15.3867 18.1868 15.0001 19.1868 14.3334L20.4668 15.6134C20.7202 15.8667 21.0535 15.9867 21.3735 15.9867C21.7068 15.9867 22.0402 15.8667 22.2802 15.6134C22.7868 15.1201 22.7868 14.3067 22.2935 13.8001Z" fill="white"/>
</svg>
