<svg width="108" height="32" viewBox="0 0 108 32" fill="none" xmlns="http://www.w3.org/2000/svg">
<path d="M11.6636 32C9.44585 32 7.44716 31.4868 5.66751 30.4603C3.91524 29.4062 2.53258 27.9913 1.51955 26.2159C0.506517 24.4127 0 22.3875 0 20.1404C0 17.8934 0.506517 15.8821 1.51955 14.1066C2.53258 12.3312 3.91524 10.9302 5.66751 9.90377C7.44716 8.87733 9.44585 8.36411 11.6636 8.36411C13.2516 8.36411 14.73 8.6554 16.099 9.23797C17.468 9.7928 18.6453 10.5696 19.6309 11.5683C20.644 12.5392 21.3695 13.7044 21.8076 15.0637L17.0847 17.1443C16.674 16.0069 15.9758 15.0915 14.9902 14.3979C14.0319 13.7044 12.923 13.3576 11.6636 13.3576C10.4863 13.3576 9.43216 13.6489 8.50126 14.2315C7.59775 14.814 6.88589 15.6186 6.36568 16.645C5.84547 17.6714 5.58537 18.8505 5.58537 20.1821C5.58537 21.5137 5.84547 22.6927 6.36568 23.7191C6.88589 24.7456 7.59775 25.5501 8.50126 26.1326C9.43216 26.7152 10.4863 27.0065 11.6636 27.0065C12.9504 27.0065 14.0729 26.6597 15.0312 25.9662C15.9895 25.2726 16.674 24.3433 17.0847 23.1782L21.8076 25.342C21.3695 26.6181 20.6577 27.7694 19.672 28.7958C18.6864 29.7945 17.509 30.5852 16.1401 31.1677C14.7711 31.7226 13.2789 32 11.6636 32Z" fill="#04A51E"/>
<path d="M25.8898 31.5007V8.86346H31.2698V31.5007H25.8898ZM25.8898 6.3251V0.499348H31.2698V6.3251H25.8898Z" fill="#04A51E"/>
<path d="M36.2372 31.5007V8.86346H41.2887V13.8986L40.878 13.1495C41.3982 11.4573 42.2059 10.2783 43.3011 9.61248C44.4236 8.94668 45.7652 8.61378 47.3258 8.61378H48.64V13.4408H46.7098C45.1765 13.4408 43.9445 13.9263 43.0136 14.8973C42.0827 15.8405 41.6172 17.1721 41.6172 18.8921V31.5007H36.2372Z" fill="#04A51E"/>
<path d="M62.358 32C60.1403 32 58.1416 31.4868 56.3619 30.4603C54.6097 29.4062 53.227 27.9913 52.214 26.2159C51.2009 24.4127 50.6944 22.3875 50.6944 20.1404C50.6944 17.8934 51.2009 15.8821 52.214 14.1066C53.227 12.3312 54.6097 10.9302 56.3619 9.90377C58.1416 8.87733 60.1403 8.36411 62.358 8.36411C63.946 8.36411 65.4245 8.6554 66.7934 9.23797C68.1624 9.7928 69.3397 10.5696 70.3254 11.5683C71.3384 12.5392 72.0639 13.7044 72.502 15.0637L67.7791 17.1443C67.3684 16.0069 66.6702 15.0915 65.6846 14.3979C64.7263 13.7044 63.6174 13.3576 62.358 13.3576C61.1807 13.3576 60.1266 13.6489 59.1957 14.2315C58.2922 14.814 57.5803 15.6186 57.0601 16.645C56.5399 17.6714 56.2798 18.8505 56.2798 20.1821C56.2798 21.5137 56.5399 22.6927 57.0601 23.7191C57.5803 24.7456 58.2922 25.5501 59.1957 26.1326C60.1266 26.7152 61.1807 27.0065 62.358 27.0065C63.6448 27.0065 64.7674 26.6597 65.7257 25.9662C66.6839 25.2726 67.3684 24.3433 67.7791 23.1782L72.502 25.342C72.0639 26.6181 71.3521 27.7694 70.3664 28.7958C69.3808 29.7945 68.2035 30.5852 66.8345 31.1677C65.4656 31.7226 63.9734 32 62.358 32Z" fill="#04A51E"/>
<path d="M76.5842 31.5007V0H81.9642V31.5007H76.5842Z" fill="#04A51E"/>
<path d="M97.5274 32C95.2276 32 93.2152 31.4729 91.4903 30.4187C89.7654 29.3645 88.4238 27.9358 87.4655 26.1326C86.5073 24.3294 86.0281 22.332 86.0281 20.1404C86.0281 17.8656 86.5073 15.8544 87.4655 14.1066C88.4512 12.3312 89.7791 10.9302 91.4492 9.90377C93.1467 8.87733 95.0359 8.36411 97.1167 8.36411C98.869 8.36411 100.402 8.6554 101.716 9.23797C103.058 9.82055 104.194 10.6251 105.125 11.6515C106.056 12.6779 106.768 13.857 107.261 15.1886C107.754 16.4924 108 17.9072 108 19.433C108 19.8214 107.973 20.2237 107.918 20.6398C107.89 21.0559 107.822 21.4166 107.713 21.7217H90.4636V17.5605H104.673L102.127 19.5163C102.374 18.2401 102.305 17.1027 101.922 16.104C101.566 15.1053 100.964 14.3147 100.115 13.7321C99.2934 13.1495 98.294 12.8583 97.1167 12.8583C95.9942 12.8583 94.9948 13.1495 94.1187 13.7321C93.2426 14.287 92.5718 15.1192 92.1063 16.2289C91.6683 17.3108 91.504 18.6285 91.6135 20.1821C91.504 21.5691 91.682 22.8036 92.1474 23.8856C92.6402 24.9397 93.3521 25.7581 94.283 26.3407C95.2413 26.9233 96.3364 27.2146 97.5685 27.2146C98.8006 27.2146 99.841 26.951 100.69 26.4239C101.566 25.8968 102.25 25.1894 102.743 24.3017L107.096 26.4655C106.658 27.5475 105.974 28.5046 105.043 29.3368C104.112 30.1691 103.003 30.821 101.716 31.2926C100.457 31.7642 99.0607 32 97.5274 32Z" fill="#04A51E"/>
</svg>
